# xmcd
#
# Track frame offsets:
#	150
#	27090
#	45475
#	66760
#	91327
#	122875
#	152505
#	180457
#	204575
#	229152
#	256050
#	290292
#
# Disc length: 4310 seconds
#
# Revision: 1
# Processed by: cddbd v1.5.1PL0 Copyright (c) Steve Scherf et al.
# Submitted via: CDex 1.50Beta5
#
DISCID=9710d40c
DTITLE=さまざまなアーティスト - super club groovin' vol,13
DYEAR=1900
DGENRE=Other
TTITLE0=felix/don't you want me
TTITLE1=tom and andy/indians
TTITLE2=hyena featuring ricky trauma/i've got to dance
TTITLE3=contact one/play my games
TTITLE4=mask attack/the phantom of the opera
TTITLE5=gangster point/people don't you feel
TTITLE6=skin deep/save your love
TTITLE7=keplero/my obsession
TTITLE8=quasimodo/i need loving you
TTITLE9=alison price/feel my love
TTITLE10=daynee/around the world
TTITLE11=dance2trance/hello sanfrancisco
EXTD=
EXTT0=
EXTT1=
EXTT2=
EXTT3=
EXTT4=
EXTT5=
EXTT6=
EXTT7=
EXTT8=
EXTT9=
EXTT10=
EXTT11=
PLAYORDER=
